<?xml version="1.0" encoding="UTF-8"?>
<svg width="24px" height="24px" viewBox="0 0 1024 1024" version="1.1" xmlns="http://www.w3.org/2000/svg"
    xmlns:xlink="http://www.w3.org/1999/xlink">
    <title>Comment</title>
    <g id="Comment" stroke="none" stroke-width="1" fill="none" fill-rule="evenodd">
        <circle id="Oval" fill="currentColor" cx="512" cy="512" r="512"></circle>
        <path fill="#FFFFFF" transform="scale(0.75, 0.75) translate(165, 215)"
            d="M736 504a56 56 0 1 1 0-112 56 56 0 0 1 0 112m-224 0a56 56 0 1 1 0-112 56 56 0 0 1 0 112m-224 0a56 56 0 1 1 0-112 56 56 0 0 1 0 112M128 128v640h192v160l224-160h352V128z" />
    </g>
</svg>