<?xml version="1.0" encoding="UTF-8"?>
<svg width="24px" height="24px" viewBox="0 0 1024 1024" version="1.1" xmlns="http://www.w3.org/2000/svg"
    xmlns:xlink="http://www.w3.org/1999/xlink">
    <title>Connection</title>
    <g id="Connection" stroke="none" stroke-width="1" fill="none" fill-rule="evenodd">
        <circle id="Oval" fill="currentColor" cx="512" cy="512" r="512"></circle>
        <path fill="#FFFFFF" transform="scale(0.75, 0.75) translate(175, 175)"
            d="M640 384v64H448a128 128 0 0 0-128 128v128a128 128 0 0 0 128 128h320a128 128 0 0 0 128-128V576a128 128 0 0 0-64-110.848V394.88c74.56 26.368 128 97.472 128 181.056v128a192 192 0 0 1-192 192H448a192 192 0 0 1-192-192V576a192 192 0 0 1 192-192z" />
        <path fill="#FFFFFF" transform="scale(0.75, 0.75) translate(175, 175)"
            d="M384 640v-64h192a128 128 0 0 0 128-128V320a128 128 0 0 0-128-128H256a128 128 0 0 0-128 128v128a128 128 0 0 0 64 110.848v70.272A192.064 192.064 0 0 1 64 448V320a192 192 0 0 1 192-192h320a192 192 0 0 1 192 192v128a192 192 0 0 1-192 192z" />
    </g>
</svg>