<?xml version="1.0" encoding="UTF-8"?>
<svg width="24px" height="24px" viewBox="0 0 24 24" version="1.1" xmlns="http://www.w3.org/2000/svg" xmlns:xlink="http://www.w3.org/1999/xlink">
    <title>drawPolygon</title>
    <g id="drawPolygon" stroke="none" stroke-width="1" fill="none" fill-rule="evenodd">
        <circle id="Oval" fill="currentColor" cx="12" cy="12" r="12"></circle>
        <path fill="#FFFFFF" transform="translate(1.875 1.625)" d="m15 12.3v-4.6c.6-.3 1-1 1-1.7 0-1.1-.9-2-2-2-.7 0-1.4.4-1.7 1h-4.6c-.3-.6-1-1-1.7-1-1.1 0-2 .9-2 2 0 .7.4 1.4 1 1.7v4.6c-.6.3-1 1-1 1.7 0 1.1.9 2 2 2 .7 0 1.4-.4 1.7-1h4.6c.3.6 1 1 1.7 1 1.1 0 2-.9 2-2 0-.7-.4-1.4-1-1.7zm-8-.3v-4l1-1h4l1 1v4l-1 1h-4z" />
    </g>
</svg>