<?xml version="1.0" encoding="UTF-8"?>
<svg width="24px" height="24px" viewBox="0 0 24 24" version="1.1" xmlns="http://www.w3.org/2000/svg" xmlns:xlink="http://www.w3.org/1999/xlink">
    <title>drawLine</title>
    <g id="drawLine" stroke="none" stroke-width="1" fill="none" fill-rule="evenodd">
        <circle id="Oval" fill="currentColor" cx="12" cy="12" r="12"></circle>
        <path fill="#FFFFFF" transform="translate(2 2.0625)" d="m13.5 3.5c-1.4 0-2.5 1.1-2.5 2.5 0 .3 0 .6.2.9l-3.8 3.8c-.3-.1-.6-.2-.9-.2-1.4 0-2.5 1.1-2.5 2.5s1.1 2.5 2.5 2.5 2.5-1.1 2.5-2.5c0-.3 0-.6-.2-.9l3.8-3.8c.3.1.6.2.9.2 1.4 0 2.5-1.1 2.5-2.5s-1.1-2.5-2.5-2.5z" />
    </g>
</svg>